<svg width="50" height="50" viewBox="0 0 50 50" fill="none" xmlns="http://www.w3.org/2000/svg">
<path d="M25 4.16667C36.4875 4.16667 45.8333 13.5125 45.8333 25C45.8333 36.4875 36.4875 45.8333 25 45.8333C13.5125 45.8333 4.16667 36.4875 4.16667 25C4.16667 13.5125 13.5125 4.16667 25 4.16667ZM25 0C11.1937 0 0 11.1937 0 25C0 38.8062 11.1937 50 25 50C38.8062 50 50 38.8062 50 25C50 11.1937 38.8062 0 25 0ZM36.2646 21.9083H34.2333C33.1917 21.9083 33 21.1125 33 20.1292C33.0021 15.9146 29.5917 12.5 25.3854 12.5H20.1146C15.9104 12.5 12.5 15.9146 12.5 20.1292V29.8708C12.5 34.0854 15.9104 37.5 20.1125 37.5H29.8875C34.0896 37.5 37.5 34.0854 37.5 29.8708V23.1437C37.5 22.4604 36.9437 21.9083 36.2646 21.9083V21.9083ZM20.1937 18.75H24.5958C25.3958 18.75 26.0417 19.4479 26.0417 20.3125C26.0417 21.1771 25.3958 21.875 24.5979 21.875H20.1937C19.3979 21.875 18.75 21.1771 18.75 20.3125C18.75 19.4479 19.3979 18.75 20.1937 18.75V18.75ZM29.7062 31.25H20.2917C19.4396 31.25 18.75 30.5521 18.75 29.6875C18.75 28.825 19.4396 28.125 20.2917 28.125H29.7062C30.5604 28.125 31.25 28.8229 31.25 29.6875C31.25 30.5521 30.5604 31.25 29.7062 31.25Z" fill="url(#paint0_linear)" fill-opacity="0.94"/>
<defs>
<linearGradient id="paint0_linear" x1="50.1243" y1="-1.77524e-06" x2="7.09946" y2="43.4692" gradientUnits="userSpaceOnUse">
<stop stop-color="#63F8D9" stop-opacity="0.59"/>
<stop offset="1" stop-color="#6378F8" stop-opacity="0.31"/>
</linearGradient>
</defs>
</svg>
