<svg width="46" height="42" viewBox="0 0 46 42" fill="none" xmlns="http://www.w3.org/2000/svg">
<path d="M45.8333 18.3875V23.2813C42.5792 23.2813 39.5833 26.0146 39.5833 29.2333C39.5833 33.7771 42.2521 41.6667 27.0833 41.6667V37.4958C37.3271 37.4958 35.3458 34.1625 35.3458 29.2313C35.3458 24.8688 37.8687 21.9396 40.0917 20.8333C37.8687 19.7271 35.3458 17.8375 35.3458 13.9333C35.3458 8.99167 37.3042 4.15833 27.0833 4.17083V0C42.2604 0 39.5833 9.3875 39.5833 13.9333C39.5833 17.15 42.5792 18.3875 45.8333 18.3875V18.3875ZM6.25 13.9333C6.25 9.3875 3.57292 0 18.75 0V4.17083C8.52917 4.15625 10.4875 8.98958 10.4875 13.9333C10.4875 17.8396 7.96458 19.7271 5.74167 20.8333C7.96458 21.9396 10.4875 24.8708 10.4875 29.2313C10.4875 34.1625 8.50625 37.4958 18.75 37.4958V41.6667C3.58125 41.6667 6.25 33.7771 6.25 29.2313C6.25 26.0125 3.25417 23.2792 0 23.2792V18.3854C3.25417 18.3875 6.25 17.15 6.25 13.9333V13.9333Z" fill="url(#paint0_linear)" fill-opacity="0.94"/>
<defs>
<linearGradient id="paint0_linear" x1="45.9473" y1="-1.47936e-06" x2="10.2903" y2="39.6278" gradientUnits="userSpaceOnUse">
<stop stop-color="#63F8D9" stop-opacity="0.59"/>
<stop offset="1" stop-color="#6378F8" stop-opacity="0.31"/>
</linearGradient>
</defs>
</svg>
