<svg width="50" height="50" viewBox="0 0 50 50" fill="none" xmlns="http://www.w3.org/2000/svg">
<path d="M49.9896 50H45.8333C45.8333 43.5333 46.0812 42.6042 42.1646 41.6958C36.1708 40.3125 30.5104 39.0062 28.4479 34.4917C27.6958 32.8437 27.1958 30.1271 29.0938 26.5458C33.3479 18.5104 34.4146 11.6187 32.0167 7.6375C29.2229 2.99375 20.7396 2.96875 17.9208 7.70833C15.5167 11.7437 16.5979 18.5979 20.8875 26.5104C22.825 30.0771 22.3396 32.8021 21.5917 34.4583C19.5458 38.9958 13.9354 40.2896 7.99792 41.6583C3.90625 42.6042 4.16667 43.4708 4.16667 50H0.0104167L0 47.4146C0 42.1646 0.414583 39.1333 6.62083 37.7C13.6312 36.0813 20.5542 34.6312 17.225 28.4958C7.36458 10.3104 14.4125 0 25 0C35.3812 0 42.6062 9.92917 32.775 28.4958C29.5437 34.5958 36.2125 36.0458 43.3792 37.7C49.5854 39.1333 50 42.1646 50 47.4146L49.9896 50ZM21.9104 37.5L23.8062 41.6667H26.2312L28.1479 37.5H21.9104ZM28.15 50L26.6833 43.75H23.3187L21.8521 50H28.15Z" fill="url(#paint0_linear)" fill-opacity="0.94"/>
<defs>
<linearGradient id="paint0_linear" x1="50.1243" y1="-1.77524e-06" x2="7.09946" y2="43.4692" gradientUnits="userSpaceOnUse">
<stop stop-color="#63F8D9" stop-opacity="0.59"/>
<stop offset="1" stop-color="#6378F8" stop-opacity="0.31"/>
</linearGradient>
</defs>
</svg>
